<svg id="Camada_1" data-name="Camada 1" xmlns="http://www.w3.org/2000/svg" viewBox="0 0 189.25 70"><defs><style>.cls-1{fill:#ffffff;}</style></defs><path class="cls-1" d="M16.75,14c.66,28.53,8.91,43,14.77,46.68,1.94,1.24,4.36-1,2.36-2.85C30,54.09,21.93,38.12,20.33,8.61c-.19-3.61-2.49-2.14-3.58.1-5.46,11.16-6.35,34.69-7.64,52-.78,10.49,1.16,10.86,1.5,5.51S14.09,24.62,16.75,14Z" transform="translate(0 0.42)"/><path class="cls-1" d="M20.87,48.92c15.37,0,22.11-15.16,14.93-26.5-3.49,13.62.8,31.9,8.3,32.94,3.89,0,1.67-11.19-2.36-11.19-1.18,0,2.11,7.35,5.58,2.74,1.77-2.36.22-6.93-.44-8.29-.4-.81.27-1.36.81-1.76s1.44-.89,3.93,0,9.66,3,10.45,9c.69,5.28-2.67,7.35-5.53,7.32-.79,0-1.27-.72-.12-.77s2.71-1,2.71-3.9-3.2-6.37-10.52-9.42c0,0,3,6-1.65,9.38s-7.43.48-7.43-2.14,2.27-3.9,4.23-2.88c4.05,2.1,6.3,11.63,0,13.61C31.88,60.85,27.33,34.6,32.68,24.18c4-7.83,8.1-2.59,8.1,7.44S34,51.18,15.06,51.46C6.05,51.59,0,45.5,0,37.4c0-4,2.23-5.6,2.86-2.86C3.94,39.18,5.74,48.92,20.87,48.92Z" transform="translate(0 0.42)"/><path class="cls-1" d="M67.75,48.69c-.35,1.44-1,2-1.46,2.11s0-1,0-1.74A5.14,5.14,0,0,0,66,47a10,10,0,0,1-1-2.65c-.16-1.22.65-1.69,1.88-2.45.75-.47,1.07-.4,1.33.45,1.93,6.2,10.36,6.56,10.36-1.41,0-5.86-6.12-8.76-9-8.76-3.39,0-1.22,5.88,3.69,5.88s6.95-7.18,6.95-9.64a4.63,4.63,0,0,0-2.59-4.51c-.73,4.14,5.49,9.28,10.52,6.9.77-.37,1.08-.5,1,.71s-.7,8.91,2.64,11.5c.5.39.55.75-.18,1.31a5.23,5.23,0,0,1-2.34,1.25c-3,0-4.79-6-3.42-12.23,0,0-10.69.41-10.69-6.76a3.74,3.74,0,0,1,3.3-3.95c1.07,0,3.22,1.36,3.22,5.49S78.53,40.23,70.55,40.23c-4.37,0-5.57-2.12-5.57-4.32a5.47,5.47,0,0,1,5.79-5.14c4.12,0,9.1,4.58,9.1,10.15S73.43,51.45,67.75,48.69Z" transform="translate(0 0.42)"/><path class="cls-1" d="M93.19,19.79c7.89,0-.33,19.12,8.33,20.39,8.11,1.19,9.16-15.79,3.56-15.79-2.38,0-.5,10,7.63,3.69,0,0-.37-5.58,3.16-7.2.81-.38.77-.17.74.94-.09,4.33-.26,13.84,2.83,16.58.5.45.38.6-.26,1.07-2.91,2.11-6.52,3-6.52-10,0,0-2.94,2.47-5.74,2.47s-5.17-1.69-5.17-4.91,2.14-4,3.59-4,4.54,2.23,4.54,7.89S107.44,43.22,100,43.22c-11.06,0-4.35-22-8.09-22-.75,0-1.37.83-2,1.34s-1.44.18-.54-.7A5.42,5.42,0,0,1,93.19,19.79Z" transform="translate(0 0.42)"/><path class="cls-1" d="M117.92,7a1,1,0,0,1,0,.17,1,1,0,0,0-.42.26,1,1,0,0,0-.21.3c0-1.57-.81-2.83-1.78-2.83s-1.77,1.3-1.77,2.91A4.16,4.16,0,0,0,114,9.47a2.68,2.68,0,0,0,.29.56,2.21,2.21,0,0,0-.59-.12h-.26c-1,0-1.83.49-1.83,1.12s.72,1.05,1.64,1.1a3.59,3.59,0,0,0-.52.79l0,.05h-.4c-1.73,0-3.12-.85-3.12-1.9s1.39-1.91,3.12-1.91a5.24,5.24,0,0,1,1.07.11A6,6,0,0,1,113,7c0-2.23,1.1-4,2.45-4S117.92,4.8,117.92,7Z" transform="translate(0 0.42)"/><path class="cls-1" d="M123.53,11.07c0,1.36-1.81,2.45-4,2.45a6.11,6.11,0,0,1-2.26-.41,4.62,4.62,0,0,1,.12,1.07c0,1.73-.86,3.12-1.91,3.12s-1.89-1.39-1.89-3.12c0-.13,0-.27,0-.41l.05,0a4.2,4.2,0,0,0,.78-.5c.06.92.53,1.63,1.1,1.63s1.13-.82,1.13-1.83a2.11,2.11,0,0,0,0-.26,2.37,2.37,0,0,0-.12-.6,2.29,2.29,0,0,0,.56.3,4.19,4.19,0,0,0,1.63.31c1.61,0,2.92-.79,2.92-1.77s-1.27-1.76-2.84-1.78a1,1,0,0,0,.3-.21,1.12,1.12,0,0,0,.27-.42h.17C121.72,8.6,123.53,9.71,123.53,11.07Z" transform="translate(0 0.42)"/><path class="cls-1" d="M120.76,7.79c.08-.08,0-.18-.08-.22a1.66,1.66,0,0,0-.72-.1,3.06,3.06,0,0,0-1.68.78l.08,0a3.2,3.2,0,0,1,1.54-.65,1.3,1.3,0,0,1,.4,0c0,.07,0,.15.1.19A.38.38,0,0,0,120.76,7.79Z" transform="translate(0 0.42)"/><path class="cls-1" d="M118.73,5.76c.08-.08.18,0,.22.08a1.54,1.54,0,0,1,.1.72,3.23,3.23,0,0,1-.77,1.69l0-.08a3.2,3.2,0,0,0,.65-1.55,1.76,1.76,0,0,0,0-.4c-.08,0-.16,0-.19-.1A.35.35,0,0,1,118.73,5.76Z" transform="translate(0 0.42)"/><path class="cls-1" d="M118.1,8.78a.57.57,0,0,0,.58-.14.57.57,0,0,0-.8-.8.55.55,0,0,0-.13.58,3.12,3.12,0,0,0-1.86,1.31c-1.16,1.66-2.83,3.29-2.61,3.51s1.85-1.45,3.51-2.61A3.13,3.13,0,0,0,118.1,8.78Z" transform="translate(0 0.42)"/><path class="cls-1" d="M125,24.08c6.15-7.39,14.78-3.85,14.78,6.3,0,5.66-3.83,8.18-5.9,8.18-1.14,0-2.23-1-2.23-3.21,0-9.2,20.82-10.68,20.82-27,0-5.27-2.58-7.47-2.58-7.47-5.44,6.88-4.83,33.93,1.68,33.93a3,3,0,0,0,2-.93c.55-.59,1.53-.68.52.65a6.81,6.81,0,0,1-5.34,2.72c-2.42,0-6.78-1.77-6.78-15.73s5.17-21.91,9-21.91,6.37,12.89-1.83,20.55S133.48,30.31,133.48,34c0,1.48.9,2.15,1.45,2.15,2.52,0,.59-13-5.48-13-2.86,0-4,3.19-4,3.19s1.55,24.06,6.19,28.62c.69.67.32,2.93-2.25,2.93s-6.94-4-6.94-28.23a5,5,0,0,1-1.94,1.86c-1.16.51-.76,0-.22-.59s2.41-2.14,2.41-7.22a2.55,2.55,0,0,1,.84-2c.42-.36,1.41-1.32,1.43.78Z" transform="translate(0 0.42)"/><path class="cls-1" d="M159.13,17.63c.9-.76,1.49-1,1.42.58-.18,4.21-.38,15.58,5,15.58a3.47,3.47,0,0,0,3.24-1.58s-2.16-7.08,1.33-8.59c.75-.32.94-.11.94.72s-.09,9.32,3.56,9.32c3.25,0,1.51-12.49,1.28-13.89s0-1.66,1-2.28,1.59-.63,3,.3,9.41,7.66,9.41,12.07a5.71,5.71,0,0,1-5.4,6,3.24,3.24,0,0,1-2.7-1.27c-.52-.62-.08-1.64.83-.86,1.43,1.2,4.29,1.17,4.25-2.1,0-2.86-8.36-11.45-8.36-11.45.44,6.78.41,8.82-.08,11-1.81,7.94-7.68,4.28-8.56,2-1.84,3-13.07,7.81-13.07-6.87C156.17,21.62,157.38,19.11,159.13,17.63Z" transform="translate(0 0.42)"/></svg>