<svg id="Camada_1" data-name="Camada 1" xmlns="http://www.w3.org/2000/svg" viewBox="0 0 265.66 108.9"><defs><style>.cls-1{fill:#4f2f7c;}.cls-2{fill:#f4c522;}</style></defs><title>logo2</title><path class="cls-1" d="M65.55,56.52a6.86,6.86,0,0,0-1.14-4c-1.72-2.28-4.7-1.61-5.16.22s.56,3.69,4.85,5.39c-.34,5.12-3.51,11.27-7,12.5-.35-5.31-2.84-5.22-4.08-4.78-1.63.58-2.63,4.13.23,5.79a4.74,4.74,0,0,0,2.48.66c-.13,4.32-1.67,10.08-6,10.23s-6.68-5.46-7.67-12.94a24.47,24.47,0,0,0,9.16-12.43c4.79-13.36,0-26.7-3.94-26.7-6.06,0-12.76,16.3-10.62,38.63a14.69,14.69,0,0,1-8.28.52c-2.26-20.82-2.94-46-10.13-46-5.56,0-6.92,16-9.14,38.48C2.87,61.47,1.2,65.85,0,74a16.74,16.74,0,0,1,8.49-5.54C7.22,80.84,5.58,94.8,2.83,108.9c0,0,4.21-1.69,6-13.82,1-7,1.87-17,2.68-27h.16c4.19,0,6.76,2.08,11.18,3.51.22,8.39.7,16,2.36,19.35,3.28,6.58,9,3.35,9,3.35-2.79-4-4.35-12.11-5.48-21.53.94.09,1.93.15,3,.15A17.74,17.74,0,0,0,37,72c.23,1.78.5,3.6.85,5.44,3,16.16,17,12.48,18.84,0a40.25,40.25,0,0,0,.46-5.38c2.51-.77,4.76-3.41,6.13-6.24a23.9,23.9,0,0,0,2.16-7.22l.53.17c6.63,2.06,10.11,5.34,10.65,9.12.58,3.94-1.78,7.16-4.87,6.41-2.91-.7-3.2-4.34-3.2-4.34s-2.65,5.91,1.1,8.2c4.32,2.63,11.59-1,11.35-9.82C80.82,61.22,71.51,58.42,65.55,56.52ZM11.94,62.63c1.41-17.59,2.84-34,5.22-34s3.66,6.56,4.89,19.43c.5,5.23.57,12.19.7,19.06A59,59,0,0,0,11.94,62.63ZM47.42,33.35c1.72,0,5.93,12.38,1.86,23.14a22.1,22.1,0,0,1-7.53,9.93C40.62,52.07,43.7,33.35,47.42,33.35ZM54.05,70.3c-2.31-1.49-.16-4.17,1.07-2.4a6.64,6.64,0,0,1,.63,3A3.37,3.37,0,0,1,54.05,70.3Zm7.49-17.54c.52-.19,2.13.74,2.5,3.27q-.6-.2-1.11-.39C61.29,55,60.66,53.07,61.54,52.76Z" transform="translate(0 0)"/><path class="cls-1" d="M162.73,44a69.8,69.8,0,0,1,2.78-16.47.48.48,0,0,0-.63-.6c-2.23.94-3.53,2.35-4.84,7.67-1.37,2.19-4.92,3.95-8.48,4.36-.79-3-2.14-4.22-3.21-4.22a2.64,2.64,0,0,0-2.51,2.88c0,1.69,2.12,3.34,4.52,3.34a22.09,22.09,0,0,1,0,4.62c-.47,4.85-4.05,9-6.85,9.27-2.64.23-6.27-.47-6.27-7.27s3.9-11.72,1.84-14.51c-1.44-2-3.6-1.78-5.43-.44a.38.38,0,0,0,.35.66c2.37-.68,4,.44,3.27,3.49-.89,3.82-4.61,8.87-4.61,14.59s3.68,10.41,9.62,9.21,9.91-7.83,9.91-15.49a28.06,28.06,0,0,0-.28-4.18,14.21,14.21,0,0,0,7.24-2.37c-1.46,6.27-2.57,11-1.18,15.13,1.24,3.65,5.29,3.56,8.06,2.28C164.69,54.78,162.48,51.71,162.73,44Zm-14.24-7.63c.56,0,1.14,1.05,1.54,2.68C147,39,147.11,36.37,148.49,36.37Z" transform="translate(0 0)"/><path class="cls-1" d="M250.51,26.59a7.29,7.29,0,0,0-1.26-4.11c-1.9-2.12-4.68-1.68-5.16.15s.5,3.7,4.78,5.46c-.33,6-2.93,15.65-5.63,15.65-2.91,0-4.33-9.31-4.57-12.52,0-.64-1.1-.77-1.15-.13-1,13.37-5.94,13.13-8.44,13.06-2.3,0-4.5-1.35-4.43-5.84s4.16-11.13,2.34-14.56a4.23,4.23,0,0,0-7.33-.55.4.4,0,0,0,.54.56c3.12-1.58,6,.54,4.46,4.24-1.13,2.63-5.95,8.15-6,13.36s3.36,8.29,9,8.37,7.4-2.56,8.88-4.76c0,0,2,4.25,6,4.25,4.32,0,7.94-12.38,8-20.49l.15.05c6.59,2.15,10,5.48,10.52,9.27.51,4-1.9,7.13-5,6.34-2.9-.75-3.13-4.39-3.13-4.39s-2.74,5.88,1,8.22c4.29,2.69,11.65-.72,11.54-9.49C265.57,32.12,255.64,28.39,250.51,26.59Zm-4.13-3.93c.52-.18,2.18.78,2.46,3.35a9,9,0,0,1-1.12-.45C246,24.65,245.49,23,246.38,22.66Z" transform="translate(0 0)"/><path class="cls-1" d="M125.85,51.78a101,101,0,0,1,1.94-13.19.54.54,0,0,0-.93-.46c-2.76,3.26-7,5.8-9.71,5.8a13.67,13.67,0,0,1-2.48-.23c.07-.85.1-1.58.09-2.12-.07-4.15-3-5.58-4.78-4.16-1.35,1.08-.81,3.95-.09,5.1A6.2,6.2,0,0,0,113,45c-.49,3.25-1.77,7.23-4.62,10-.43-6.62-6-15.87-12.94-14.09-5.81,1.5-7.07,8.19-4.86,13.07,2.63,5.8,9.37,6.56,14.28,5.17-.41,2.94-1.74,5.41-4.31,6.4C93,68.47,88.65,59.65,88.65,59.65c.73,4.58.2,11.58-3.05,15.73,0,0,3.73-1.27,4.79-6.38,0,0,3.38,3.82,9.58,2,5.84-1.75,8.23-7.55,8.46-13.4h0c3.82-2.63,5.44-8.09,6-12.12a13.8,13.8,0,0,0,2.72.26c3.19,0,6.69-2.13,6.69-2.13-3.07,6.15-4.56,14.19-2.84,18,1.8,4,7.65,1.82,7.65,1.82C125.58,60.48,125.7,54.78,125.85,51.78ZM93.68,54.13c-1.7-3-2.26-9.5,2.59-10.72,4.67-1.16,8.68,6.7,8.75,13.47C101,58.13,95.63,57.6,93.68,54.13ZM111.42,42c-2.61-4,1.79-4.85,1.85-.4,0,.49,0,1.06,0,1.68A3.72,3.72,0,0,1,111.42,42Z" transform="translate(0 0)"/><path class="cls-1" d="M212.37,42.12c-1.14,2.07-3.17,4.13-6.92,2.42-2.19-1-3.6-4.27-4.42-8.57a18.9,18.9,0,0,0,8.64-13.34C212,9.23,208.92,0,204.25,0c-2.66,0-7.9,5.71-9,20.82a73.27,73.27,0,0,0,.45,16.07c-1.6.83-3.13,1.51-4.45,2.08-.5-6-3.42-12.2-7.81-12.78-4.56-.61-7.13,3.25-7.13,3.25L177,25.6a.38.38,0,0,0-.5-.47,19.86,19.86,0,0,0-2.92,1.25c-1,.59-1.89,8.13-1.95,16.16-.08,9.31,1.49,29.24,8.15,32.7,3.78,2,6.81-.67,6.45-2.74C173.15,61.57,175.33,37,175.85,33.58c.56-3.58,4.24-4.69,6.56-4s5,3.82,5,11.24h0c-3.56,2-5.1,3.81-5.75,6.39-.72,2.86-.21,6.11,2.94,6.14,5.27,0,6.68-5.92,6.73-12.44a1.76,1.76,0,0,0,0-.23c1.47-.65,3.06-1.29,4.67-2,1.47,7.86,4.48,12.83,8.33,12.51,6.19-.52,8.15-5.59,8.77-8.81A.38.38,0,0,0,212.37,42.12ZM185,48c-.66,0-2.51-2.09,2.34-5.19C187,48.17,185.66,48,185,48Zm19.48-44.8c1.6,0,5.18,5.86,3.15,18.61a18.67,18.67,0,0,1-7,11.9C199,21.31,201.4,3.15,204.47,3.15Z" transform="translate(0 0)"/><path class="cls-1" d="M159.27,16l.65,0L160,16a5.7,5.7,0,0,1,.83-1.28c-1.49-.08-2.65-.85-2.65-1.77s1.33-1.79,3-1.79h.42a4.19,4.19,0,0,1,1,.19,4.25,4.25,0,0,1-.48-.9,6.86,6.86,0,0,1-.49-2.61c0-2.59,1.29-4.68,2.87-4.68s2.84,2,2.88,4.55a1.6,1.6,0,0,1,.34-.49,1.68,1.68,0,0,1,.68-.42,2.35,2.35,0,0,0,0-.26c0-3.59-1.79-6.5-4-6.5s-4,2.91-4,6.5a9.83,9.83,0,0,0,.66,3.6,8,8,0,0,0-1.73-.19c-2.79,0-5.05,1.38-5.05,3.07S156.48,16,159.27,16Z" transform="translate(0 0)"/><path class="cls-1" d="M177.4,13c0-2.18-2.93-4-6.53-4h-.28a1.82,1.82,0,0,1-.43.68,1.57,1.57,0,0,1-.49.33c2.55,0,4.6,1.31,4.6,2.86s-2.12,2.85-4.72,2.85a7,7,0,0,1-2.64-.49,3.49,3.49,0,0,1-.92-.49,3.42,3.42,0,0,1,.2,1,2.73,2.73,0,0,1,0,.41c0,1.63-.81,3-1.82,3s-1.69-1.15-1.8-2.63a5.93,5.93,0,0,1-1.25.81l-.07,0a4.87,4.87,0,0,0,0,.66c0,2.78,1.38,5,3.08,5s3.09-2.23,3.09-5a7.45,7.45,0,0,0-.2-1.73,9.71,9.71,0,0,0,3.66.67C174.47,16.93,177.4,15.17,177.4,13Z" transform="translate(0 0)"/><path class="cls-1" d="M168.24,7.8a.9.9,0,0,0-.21.92,5.1,5.1,0,0,0-3,2.12c-1.88,2.66-4.57,5.28-4.22,5.63s3-2.32,5.68-4.19a5.08,5.08,0,0,0,2.13-3,.9.9,0,0,0,1.11-1.23,4.5,4.5,0,0,1,1.8-.59,2.31,2.31,0,0,1,.65,0c-.07.12,0,.25.16.31a.59.59,0,0,0,.58-.11c.13-.12.07-.28-.12-.35a2.51,2.51,0,0,0-1.18-.15,4.35,4.35,0,0,0-2,.71,1.25,1.25,0,0,0-.08-.12l-.11-.08a4.38,4.38,0,0,0,.71-2A2.71,2.71,0,0,0,170,4.58c-.07-.2-.23-.25-.36-.13a.6.6,0,0,0-.11.58c.06.17.19.23.31.16a2.74,2.74,0,0,1,0,.65,4.56,4.56,0,0,1-.6,1.78A.92.92,0,0,0,168.24,7.8Z" transform="translate(0 0)"/><path class="cls-2" d="M117.62,89.82a13.61,13.61,0,0,0,1.51-3.19,9,9,0,0,0,.46-2.53,6.36,6.36,0,0,0-.28-1.94,3.21,3.21,0,0,0-.94-1.44,2.59,2.59,0,0,0-1.71-.54,3.94,3.94,0,0,0-2.25.71,8.23,8.23,0,0,0-2.33,2.43c.12-1.07.18-1.82.18-2.23a1.19,1.19,0,0,0-.23-.81,1,1,0,0,0-.59-.31,5.71,5.71,0,0,0-.73,0,4.61,4.61,0,0,0-.84.07,1.24,1.24,0,0,0-1,1.29q-.44,6.42-.43,13.15c0,.77,0,2.07,0,3.89a23.78,23.78,0,0,0,.52,4.94,1.08,1.08,0,0,0,1.12,1,1,1,0,0,0,.53-.14q.51-.28.51-1.47,0-4.2.3-9.93c.12-2.29.28-4.42.49-6.37A3.42,3.42,0,0,1,112.4,85a10.31,10.31,0,0,1,1.58-2.1,2.47,2.47,0,0,1,1.52-.9c.61,0,.91.65.91,1.95a10.77,10.77,0,0,1-.52,3.19,10.26,10.26,0,0,1-1.6,3.14,4,4,0,0,1-1.64,1.27c-.51.21-.77.46-.77.74A37.66,37.66,0,0,0,114.59,98a37.66,37.66,0,0,0,2.85,4.67.92.92,0,0,0,.75.46,1.19,1.19,0,0,0,.44-.09.71.71,0,0,0,.51-.7c0-.51-.94-2.64-2.8-6.39l-1.52-3A12.32,12.32,0,0,0,117.62,89.82Z" transform="translate(0 0)"/><path class="cls-2" d="M137.47,87a3.36,3.36,0,0,0,.63.06,1.41,1.41,0,0,0,1.62-1.57,1.28,1.28,0,0,0-.2-.78.81.81,0,0,0-.5-.3,3.21,3.21,0,0,0-.63-.06,2.56,2.56,0,0,0-.81.11,1,1,0,0,0-.59.44,1.92,1.92,0,0,0-.22,1,1.24,1.24,0,0,0,.2.78A.81.81,0,0,0,137.47,87Z" transform="translate(0 0)"/><path class="cls-2" d="M149.53,91.65a.48.48,0,0,0-.5.37A31.05,31.05,0,0,1,147.56,96c-.74,1.69-1.31,2.54-1.72,2.54q-.33,0-.33-1c0-.65,0-1,0-1.1,0-2.1.18-5.11.52-9,.11-1.2.24-2.41.39-3.61a10.14,10.14,0,0,0,.1-1.31.86.86,0,0,0-.24-.68,1.14,1.14,0,0,0-.59-.26,5.55,5.55,0,0,0-.72,0c-1.2,0-1.84.67-1.92,2l-.27,4c-.12,1.72-.19,3.24-.23,4.59A32.62,32.62,0,0,1,141.09,96c-.75,1.69-1.33,2.54-1.74,2.54-.25,0-.37-.68-.37-2.06,0-.83,0-1.76.11-2.78s.15-1.93.23-2.73.14-1.33.18-1.59a5.13,5.13,0,0,0,0-.52.9.9,0,0,0-.34-.77,2.24,2.24,0,0,0-1.17-.23,1.89,1.89,0,0,0-1.61.59c-.3.41-.49,1.64-.55,3.65a12,12,0,0,1-1.34,3.11,4.23,4.23,0,0,1-2.22,1.77l-.38-.58q.48-5.89,1.18-11.93a8.83,8.83,0,0,0,.08-1.17.86.86,0,0,0-.23-.68,1.07,1.07,0,0,0-.58-.26,6,6,0,0,0-.74,0,2.36,2.36,0,0,0-1.54.39,1.12,1.12,0,0,0-.32.77c-.1,1.36-.22,2.74-.34,4.12-.14,1.61-.26,3.1-.36,4.49a18.72,18.72,0,0,1-1.16,3,9.55,9.55,0,0,1-2.24,3.06,2.1,2.1,0,0,1-1.35.55,1,1,0,0,1-.91-.49A3.47,3.47,0,0,1,123,97a8.17,8.17,0,0,1-.12-1.36,3.37,3.37,0,0,0,2.17-.84,5.17,5.17,0,0,0,1.4-2,6.39,6.39,0,0,0,.49-2.43c0-1.67-.74-2.51-2.24-2.51a3.42,3.42,0,0,0-2.16.73,6.23,6.23,0,0,0-1.58,1.88,10.46,10.46,0,0,0-1,2.48,10.3,10.3,0,0,0-.33,2.5,5.9,5.9,0,0,0,1,3.58,3.45,3.45,0,0,0,3,1.3A5,5,0,0,0,127.51,98a14,14,0,0,0,1.35-2.18c-.07,1.49-.11,2.81-.11,3.93a27.54,27.54,0,0,0,.55,6.31c.47,1.89,1.32,2.84,2.56,2.84q2.44,0,2.44-5.16A12.31,12.31,0,0,0,133,98.2a6.7,6.7,0,0,0,2.17-2,9.17,9.17,0,0,0,.66-1.08,11.58,11.58,0,0,0,.54,3c.49,1.43,1.28,2.15,2.38,2.15,1.3,0,2.55-1.61,3.76-4.77,0,.49.07.93.13,1.34.33,2.28,1.19,3.43,2.6,3.43s2.73-1.88,4.06-5.63a18,18,0,0,0,.79-2.45.57.57,0,0,0-.11-.33A.6.6,0,0,0,149.53,91.65Zm-26.07-.14c.44-1.42,1-2.12,1.62-2.12.45,0,.67.38.67,1.16a4.68,4.68,0,0,1-.32,1.66,4.58,4.58,0,0,1-1,1.6,2.33,2.33,0,0,1-1.53.75A13.67,13.67,0,0,1,123.46,91.51Zm9.78,12.31a8.92,8.92,0,0,1-.11,1.36,6,6,0,0,1-.34,1.36q-.24.57-.63.57c-.15,0-.29-.29-.4-.89a17.43,17.43,0,0,1-.17-2.86q0-2,.18-4.62l.34-.11a9.69,9.69,0,0,1,.85,2.21A14.11,14.11,0,0,1,133.24,103.82Z" transform="translate(0 0)"/><path class="cls-2" d="M200.36,91.65a.49.49,0,0,0-.51.37A38,38,0,0,1,198.39,96c-.75,1.69-1.32,2.54-1.72,2.54-.22,0-.34-.27-.36-.8s0-.93,0-1.18c0-1.43.11-3.21.32-5.34.1-.94.17-1.55.21-1.84a3.28,3.28,0,0,0,0-.52.87.87,0,0,0-.34-.77,2.24,2.24,0,0,0-1.17-.23,1.9,1.9,0,0,0-1.61.59,1.54,1.54,0,0,0-.28.62,2.15,2.15,0,0,0-1.74-1,3,3,0,0,0-1.86.59,4.87,4.87,0,0,0-1.32,1.57,9.68,9.68,0,0,0-.74,1.77v0A35.8,35.8,0,0,1,186.34,96c-.75,1.69-1.32,2.54-1.72,2.54s-.46-.42-.46-1.25a23.1,23.1,0,0,1,.62-4.65,6.7,6.7,0,0,0,.19-1.32,1,1,0,0,0-.28-.8,3.2,3.2,0,0,0-1.39-.55,4.16,4.16,0,0,1-2.38-1.2,11,11,0,0,0,.24-2.24A.59.59,0,0,0,181,86a.85.85,0,0,0-.45-.2,3.27,3.27,0,0,0-.53,0,1.76,1.76,0,0,0-1,.22c-.23.14-.34.45-.34.91v.53a2.6,2.6,0,0,0,.9,2A15,15,0,0,1,179,92,35.83,35.83,0,0,1,177.53,96c-.74,1.69-1.32,2.54-1.72,2.54-.21,0-.33-.27-.35-.8s0-.93,0-1.18q0-2.15.33-5.34c.09-.94.16-1.55.21-1.84a5.13,5.13,0,0,0,0-.52.88.88,0,0,0-.35-.77,2.22,2.22,0,0,0-1.16-.23,1.92,1.92,0,0,0-1.62.59,1.69,1.69,0,0,0-.27.62,2.17,2.17,0,0,0-1.75-1,3,3,0,0,0-1.85.59,4.9,4.9,0,0,0-1.33,1.57,9.66,9.66,0,0,0-.73,1.77s0,0,0,0a21.3,21.3,0,0,1-.75,2.13,6.82,6.82,0,0,1-3,3.46,13.74,13.74,0,0,0,1.3-4.43,19.43,19.43,0,0,0,.17-2.45,3.5,3.5,0,0,0-.57-2.18,1.65,1.65,0,0,0-1.34-.74q-2.42,0-3.86,4.22c.07-.71.14-1.4.22-2.06a8.77,8.77,0,0,0,.09-1.17.9.9,0,0,0-.23-.68,1.14,1.14,0,0,0-.59-.26,5.71,5.71,0,0,0-.73,0,4.69,4.69,0,0,0-.84.08,1.42,1.42,0,0,0-.7.32,1.1,1.1,0,0,0-.32.77c-.11,1.35-.2,3.1-.29,5.26s-.14,4.16-.14,6a33.23,33.23,0,0,0,.55,7.34,1,1,0,0,0,1.13.85,1.07,1.07,0,0,0,.74-.27,1.44,1.44,0,0,0,.3-1.08q0-3.33.26-7.78a22.44,22.44,0,0,1,1.23-5.54c.76-2.29,1.35-3.44,1.76-3.44.12,0,.21.08.29.24a1.43,1.43,0,0,1,.11.6,16.29,16.29,0,0,1-.67,4.73,4.52,4.52,0,0,1-1.15,2.21,2.51,2.51,0,0,0-.79-.18c-.43,0-.65.23-.65.7a1.48,1.48,0,0,0,.41,1.12,1.58,1.58,0,0,0,1.1.38,2.75,2.75,0,0,0,1.83-.69,6.89,6.89,0,0,0,4.39-2.92c0,.13,0,.27,0,.39a4.9,4.9,0,0,0,.21,1.43,2.46,2.46,0,0,0,.68,1.16,1.9,1.9,0,0,0,1.35.45c1.06,0,2-.67,2.69-2a16,16,0,0,0,1.17-3c.22,3.55,1.19,5.33,2.93,5.33q2.12,0,4.08-5.63c.46-1.32.71-2.11.77-2.37.18-.62.37-1.32.56-2.14a6.21,6.21,0,0,0,1.21.47,24.67,24.67,0,0,0-.59,2.64A16.76,16.76,0,0,0,181,96a5.67,5.67,0,0,0,.76,3.17,2.56,2.56,0,0,0,2.29,1.16c1,0,2-1,3-3.09a4.84,4.84,0,0,0,.18,1.14,2.47,2.47,0,0,0,.69,1.16,1.9,1.9,0,0,0,1.35.45c1.05,0,1.95-.67,2.68-2a15.25,15.25,0,0,0,1.18-3q.32,5.33,2.93,5.33,2.1,0,4.07-5.63A20.82,20.82,0,0,0,201,92.2a.57.57,0,0,0-.11-.33A.6.6,0,0,0,200.36,91.65Zm-28.3.16c-.22.76-.48,1.59-.79,2.48a20.06,20.06,0,0,1-.94,2.33c-.32.66-.59,1-.82,1s-.39-.28-.39-.84a15.69,15.69,0,0,1,.65-4.6c.49-1.57,1.12-2.35,1.89-2.35a.78.78,0,0,1,.44.13.86.86,0,0,1,.3.3A10.09,10.09,0,0,1,172.06,91.81Zm20.85,0c-.21.76-.47,1.59-.78,2.48a22,22,0,0,1-.94,2.33c-.33.66-.6,1-.82,1s-.4-.28-.4-.84a15.36,15.36,0,0,1,.66-4.6c.48-1.57,1.11-2.35,1.88-2.35A.81.81,0,0,1,193,90a.86.86,0,0,1,.3.3A10.54,10.54,0,0,1,192.91,91.81Z" transform="translate(0 0)"/><path class="cls-2" d="M265.55,91.87a.59.59,0,0,0-.49-.22.49.49,0,0,0-.51.37A38,38,0,0,1,263.09,96c-.75,1.69-1.32,2.54-1.72,2.54-.22,0-.33-.27-.36-.8s0-.93,0-1.18q0-2.15.33-5.34c.09-.94.16-1.55.21-1.84a5,5,0,0,0,0-.52.87.87,0,0,0-.34-.77,2.24,2.24,0,0,0-1.17-.23,1.9,1.9,0,0,0-1.61.59,1.87,1.87,0,0,0-.28.62,2.14,2.14,0,0,0-1.74-1,3.06,3.06,0,0,0-1.86.59,5,5,0,0,0-1.32,1.57A9,9,0,0,0,252.5,92v0A38,38,0,0,1,251,96c-.75,1.69-1.32,2.54-1.72,2.54q-.3,0-.33-.9c0-.61,0-1,0-1.29q0-2.6.41-7.46.49-5.9.63-6.64a6.24,6.24,0,0,0,.09-1,.85.85,0,0,0-.23-.68,1,1,0,0,0-.58-.26,4.53,4.53,0,0,0-.74,0,2.26,2.26,0,0,0-1.52.39,1.13,1.13,0,0,0-.33.77c-.18,2-.36,4.52-.55,7.54a2.07,2.07,0,0,0-1.62-.81,3,3,0,0,0-1.86.59,4.75,4.75,0,0,0-1.32,1.57A9.68,9.68,0,0,0,240.6,92s0,0,0,0A31.05,31.05,0,0,1,239.12,96c-.74,1.69-1.31,2.54-1.72,2.54q-.32,0-.33-1c0-.65,0-1,0-1.1q0-3.15.53-9c.1-1.2.23-2.41.39-3.61a10.07,10.07,0,0,0,.09-1.31.86.86,0,0,0-.24-.68,1.11,1.11,0,0,0-.58-.26,5.84,5.84,0,0,0-.73,0c-1.2,0-1.84.67-1.92,2l-.27,4c-.12,1.72-.19,3.24-.23,4.59A37,37,0,0,1,232.65,96c-.75,1.69-1.32,2.54-1.72,2.54-.22,0-.34-.27-.36-.8s0-.93,0-1.18c0-1.43.11-3.21.32-5.34.1-.94.17-1.55.21-1.84a3.28,3.28,0,0,0,0-.52.87.87,0,0,0-.34-.77,2.24,2.24,0,0,0-1.17-.23,1.9,1.9,0,0,0-1.61.59,1.54,1.54,0,0,0-.28.62,2.15,2.15,0,0,0-1.74-1,3,3,0,0,0-1.86.59,4.75,4.75,0,0,0-1.32,1.57,9.68,9.68,0,0,0-.74,1.77v0A35.8,35.8,0,0,1,220.6,96c-.75,1.69-1.32,2.54-1.72,2.54s-.46-.42-.46-1.25a23.1,23.1,0,0,1,.62-4.65,6.7,6.7,0,0,0,.19-1.32,1,1,0,0,0-.28-.8,3.2,3.2,0,0,0-1.39-.55,4.16,4.16,0,0,1-2.38-1.2,11,11,0,0,0,.23-2.24.59.59,0,0,0-.17-.48.85.85,0,0,0-.45-.2,3.27,3.27,0,0,0-.53,0,1.76,1.76,0,0,0-1,.22c-.23.14-.34.45-.34.91v.53a2.6,2.6,0,0,0,.9,2,15,15,0,0,1-.59,2.62,11.74,11.74,0,0,1-1.34,3.14,4.25,4.25,0,0,1-2.23,1.77l-.37-.58q.48-5.89,1.18-11.93a10.93,10.93,0,0,0,.08-1.17.9.9,0,0,0-.23-.68,1.11,1.11,0,0,0-.59-.26,5.71,5.71,0,0,0-.73,0,2.36,2.36,0,0,0-1.54.39,1.08,1.08,0,0,0-.32.77c-.11,1.36-.22,2.74-.34,4.12q-.69,7.88-.69,12.21a28.23,28.23,0,0,0,.54,6.31c.47,1.89,1.33,2.84,2.57,2.84,1.62,0,2.44-1.72,2.44-5.16a12.19,12.19,0,0,0-1.27-5.54,6.72,6.72,0,0,0,2.18-2A10,10,0,0,0,214,93.44c.15-.46.25-.78.31-1,0,0,0,0,0,0q.3-1,.6-2.28a6.21,6.21,0,0,0,1.21.47,22.44,22.44,0,0,0-.59,2.64,16.76,16.76,0,0,0-.27,2.7,5.67,5.67,0,0,0,.76,3.17,2.56,2.56,0,0,0,2.29,1.16c1,0,2.05-1,3-3.09a4.84,4.84,0,0,0,.18,1.14,2.54,2.54,0,0,0,.68,1.16,1.94,1.94,0,0,0,1.36.45c1.05,0,1.94-.67,2.68-2a15.25,15.25,0,0,0,1.18-3q.31,5.33,2.93,5.33c1.29,0,2.54-1.61,3.75-4.77,0,.49.07.93.13,1.34.33,2.28,1.2,3.43,2.6,3.43,1,0,2-1.06,3-3.15a5.44,5.44,0,0,0,.18,1.2,2.39,2.39,0,0,0,.69,1.16,1.9,1.9,0,0,0,1.35.45c1.06,0,1.95-.67,2.69-2a15.07,15.07,0,0,0,1.19-3v.16q.15,5.21,2.75,5.21,1.56,0,3-3.11a5.09,5.09,0,0,0,.18,1.16,2.56,2.56,0,0,0,.69,1.16,1.9,1.9,0,0,0,1.35.45c1.05,0,2-.67,2.69-2a16,16,0,0,0,1.17-3c.22,3.55,1.19,5.33,2.93,5.33,1.41,0,2.76-1.88,4.08-5.63a21.82,21.82,0,0,0,.78-2.45A.57.57,0,0,0,265.55,91.87Zm-54.93,11.95a10.42,10.42,0,0,1-.11,1.36,6,6,0,0,1-.34,1.36q-.24.57-.63.57c-.16,0-.29-.29-.4-.89a16.36,16.36,0,0,1-.17-2.86q0-2,.18-4.62l.34-.11a9.2,9.2,0,0,1,.84,2.21A13.44,13.44,0,0,1,210.62,103.82Zm16.55-12c-.21.76-.47,1.59-.78,2.48a22,22,0,0,1-.94,2.33c-.33.66-.6,1-.83,1s-.39-.28-.39-.84a15.36,15.36,0,0,1,.66-4.6c.48-1.57,1.11-2.35,1.88-2.35a.81.81,0,0,1,.45.13.86.86,0,0,1,.3.3A10.54,10.54,0,0,1,227.17,91.81Zm18.54,0c-.2.76-.46,1.59-.77,2.48a20,20,0,0,1-.95,2.33c-.32.66-.59,1-.82,1s-.39-.28-.39-.84a15.69,15.69,0,0,1,.65-4.6c.49-1.57,1.12-2.35,1.89-2.35a.81.81,0,0,1,.45.13.86.86,0,0,1,.3.3A12.75,12.75,0,0,1,245.71,91.81Zm11.9,0c-.21.76-.47,1.59-.78,2.48a22,22,0,0,1-.94,2.33c-.32.66-.6,1-.82,1s-.39-.28-.39-.84a15.36,15.36,0,0,1,.65-4.6c.48-1.57,1.11-2.35,1.89-2.35a.8.8,0,0,1,.44.13.86.86,0,0,1,.3.3A9.34,9.34,0,0,1,257.61,91.81Z" transform="translate(0 0)"/></svg>