<svg id="Camada_1" data-name="Camada 1" xmlns="http://www.w3.org/2000/svg" viewBox="0 0 189.25 70"><defs><style>.cls-1{fill:#ffffff;}</style></defs><path class="cls-1" d="M16.75,14.37c.65,28.52,8.91,42.94,14.77,46.68,1.94,1.23,4.36-.95,2.35-2.86C30,54.51,21.93,38.54,20.33,9c-.19-3.61-2.49-2.14-3.58.1-5.46,11.15-6.35,34.69-7.64,52-.78,10.49,1.16,10.85,1.5,5.51S14.09,25,16.75,14.37Z"/><path class="cls-1" d="M20.87,49.34c15.37,0,22.11-15.16,14.93-26.5-3.5,13.61.8,31.9,8.3,32.94,3.89,0,1.67-11.19-2.36-11.19-1.18,0,2.11,7.34,5.58,2.73,1.77-2.36.22-6.93-.44-8.28-.4-.82.27-1.36.8-1.76s1.45-.89,3.94,0,9.66,3,10.45,9c.69,5.29-2.67,7.36-5.53,7.33-.79,0-1.27-.73-.12-.78s2.71-1,2.71-3.9-3.2-6.36-10.52-9.41c0,0,3.07,6-1.65,9.38-4.25,3.07-7-.21-7.23-2.28a2.73,2.73,0,0,1,4-2.74c4.05,2.1,6.3,11.63,0,13.61C31.88,61.27,27.33,35,32.68,24.59c4-7.82,8.1-2.58,8.1,7.45S34,51.6,15.06,51.87C6.05,52,0,45.92,0,37.82c0-4,2.23-5.61,2.86-2.86C3.94,39.6,5.74,49.34,20.87,49.34Z"/><path class="cls-1" d="M67.75,49.1a2.9,2.9,0,0,1-2.08,2.33c-.71.15.16-.93.34-2a4.83,4.83,0,0,0,0-2,9.88,9.88,0,0,1-1-2.64c-.16-1.23.65-1.69,1.88-2.46.75-.46,1.07-.4,1.33.46,1.93,6.2,10.19,6.11,10.16-1.37,0-5.85-6-9.42-8.78-8.81-3.31.74-1.23,5.88,3.69,5.88s6.95-7.17,6.95-9.63a4.66,4.66,0,0,0-2.59-4.52c-.73,4.15,5.49,9.29,10.52,6.91.77-.37,1.08-.5,1,.7s-.7,8.92,2.64,11.5c.5.4.55.75-.18,1.31A5.17,5.17,0,0,1,89.29,46c-3,0-4.79-6-3.42-12.24,0,0-10.69.42-10.69-6.75a3.75,3.75,0,0,1,3.3-4c1.07,0,3.22,1.37,3.22,5.49S78.49,41,70.53,40.45C67,40.23,65,38.38,65,36.33a4.9,4.9,0,0,1,4.12-5c3.58-.68,9,2.71,10.18,8.26C80.94,47.38,73.43,51.87,67.75,49.1Z"/><path class="cls-1" d="M93.83,21.55c7.44,0-.31,18,7.85,19.23,7.65,1.12,8.59-15.43,3.31-15.43-2.24,0-.42,10,7.24,4,0,0-.35-5.26,3-6.79.77-.35.73-.15.71.89-.09,4.08-.25,13,2.66,15.63.47.42.36.56-.24,1-2.74,2-6.15,2.81-6.15-9.44,0,0-2.77,2.33-5.41,2.33s-4.87-1.6-4.87-4.63,1.88-4.3,3.34-4.3c2,0,4.32,2.64,4.32,8s-2.3,11.6-9.31,11.6c-10.42,0-4.1-20.75-7.63-20.75-.7,0-1.28.78-1.86,1.26s-1.36.17-.51-.67A5.16,5.16,0,0,1,93.83,21.55Z"/><path class="cls-1" d="M118.21,4.82V5a1.11,1.11,0,0,0-.5.31,1.23,1.23,0,0,0-.25.36c0-1.88-1-3.38-2.12-3.38s-2.12,1.56-2.12,3.48a5.07,5.07,0,0,0,.36,1.93,3.24,3.24,0,0,0,.36.67,3.19,3.19,0,0,0-.71-.14h-.31c-1.2,0-2.18.59-2.18,1.33s.86,1.25,2,1.31a4.26,4.26,0,0,0-.61.95l0,.06h-.48c-2.06,0-3.72-1-3.72-2.27s1.66-2.28,3.72-2.28a5.75,5.75,0,0,1,1.27.14,7.35,7.35,0,0,1-.48-2.67c0-2.66,1.31-4.82,2.93-4.82S118.21,2.16,118.21,4.82Z"/><path class="cls-1" d="M124.91,9.63c0,1.63-2.16,2.93-4.81,2.93a7,7,0,0,1-2.69-.5,5.93,5.93,0,0,1,.14,1.29c0,2.06-1,3.71-2.27,3.71S113,15.41,113,13.35a3.91,3.91,0,0,1,0-.49s0,0,0,0a4.23,4.23,0,0,0,.92-.6c.08,1.1.64,1.95,1.33,1.95s1.34-1,1.34-2.19a2.83,2.83,0,0,0,0-.3,2.79,2.79,0,0,0-.15-.72,2.39,2.39,0,0,0,.67.36,5.17,5.17,0,0,0,1.95.37c1.91,0,3.48-.95,3.48-2.12s-1.52-2.09-3.39-2.12a1.07,1.07,0,0,0,.36-.25,1.26,1.26,0,0,0,.32-.5h.2C122.75,6.69,124.91,8,124.91,9.63Z"/><path class="cls-1" d="M121.6,5.72c.1-.09.06-.21-.09-.26a1.84,1.84,0,0,0-.86-.11,3.66,3.66,0,0,0-2,.92l.1.05a3.72,3.72,0,0,1,1.84-.77,2.5,2.5,0,0,1,.48,0,.16.16,0,0,0,.11.23A.43.43,0,0,0,121.6,5.72Z"/><path class="cls-1" d="M119.19,3.3c.09-.09.21,0,.26.1a1.84,1.84,0,0,1,.11.86,3.73,3.73,0,0,1-.92,2l0-.1a3.72,3.72,0,0,0,.77-1.84,2.5,2.5,0,0,0,0-.48.16.16,0,0,1-.23-.11A.45.45,0,0,1,119.19,3.3Z"/><path class="cls-1" d="M118.43,6.9a.66.66,0,0,0,.69-.16.68.68,0,0,0,0-1,.66.66,0,0,0-1,0,.64.64,0,0,0-.16.68A3.79,3.79,0,0,0,115.79,8c-1.38,2-3.36,3.92-3.1,4.18s2.2-1.72,4.18-3.11A3.71,3.71,0,0,0,118.43,6.9Z"/><path class="cls-1" d="M125,24.5c6.15-7.4,14.78-3.86,14.78,6.29,0,5.66-3.83,8.18-5.9,8.18-1.14,0-2.23-1-2.23-3.2,0-9.21,20.82-10.69,20.82-27,0-5.28-2.58-7.47-2.58-7.47C144.41,8.15,145,35.2,151.53,35.2a3,3,0,0,0,2-.93c.55-.6,1.53-.69.52.65a6.84,6.84,0,0,1-5.35,2.71c-2.41,0-6.77-1.76-6.77-15.72S147.11,0,150.94,0s6.37,12.88-1.83,20.54-15.63,10.19-15.63,13.9c0,1.48.9,2.15,1.45,2.15,2.52,0,.59-13-5.48-13-2.86,0-4,3.19-4,3.19s1.55,24.05,6.19,28.61c.69.67.32,2.94-2.25,2.94s-6.94-4-6.94-28.23a5,5,0,0,1-1.94,1.86c-1.16.51-.76,0-.22-.59s2.41-2.14,2.41-7.22a2.54,2.54,0,0,1,.84-2c.42-.36,1.41-1.32,1.43.77Z"/><path class="cls-1" d="M159.13,18.05c.9-.77,1.49-1,1.42.58-.18,4.21-.38,15.58,5,15.58a3.47,3.47,0,0,0,3.24-1.59s-2.16-7.08,1.33-8.58c.75-.32.93-.11.93.72s-.08,9.32,3.57,9.32c3.25,0,1.51-12.49,1.28-13.89s0-1.66,1-2.28,1.59-.64,3,.29,9.41,7.66,9.41,12.08a5.69,5.69,0,0,1-5.39,6,3.26,3.26,0,0,1-2.7-1.26c-.52-.62-.08-1.64.83-.87,1.43,1.21,4.29,1.17,4.25-2.09,0-2.86-8.36-11.46-8.36-11.46.44,6.79.41,8.83-.08,11-1.81,7.93-7.68,4.28-8.56,2-1.84,3-13.07,7.81-13.07-6.88C156.17,22,157.38,19.53,159.13,18.05Z"/></svg>